<svg width="21" height="21" viewBox="0 0 21 21" fill="none" xmlns="http://www.w3.org/2000/svg">
<path fill-rule="evenodd" clip-rule="evenodd" d="M20.7852 6.68182C20.9279 7.30815 21 7.94852 21 8.59091H12.4091V0C14.3557 -7.70279e-06 16.2447 0.661121 17.7665 1.87508C19.2882 3.08903 20.3526 4.78383 20.7852 6.68182ZM18.8122 6.68182C18.4952 5.61847 17.9184 4.6508 17.1338 3.86621C16.3492 3.08161 15.3815 2.50479 14.3182 2.18782V6.68182H18.8122Z" fill="white"/>
<path fill-rule="evenodd" clip-rule="evenodd" d="M0 12.4093C-5.10598e-06 11.1189 0.290681 9.84508 0.850471 8.68243C1.41026 7.51978 2.22477 6.49816 3.23352 5.69346C4.24227 4.88875 5.41934 4.32162 6.67732 4.03419C7.9353 3.74676 9.24187 3.74641 10.5 4.03317V10.5002H16.967C17.2357 11.6792 17.2525 12.9016 17.0163 14.0875C16.78 15.2734 16.2961 16.3961 15.5961 17.3821C14.8962 18.3682 13.9959 19.1953 12.9543 19.8095C11.9127 20.4236 10.7531 20.811 9.55147 20.9462C8.34985 21.0814 7.13321 20.9614 5.98114 20.5941C4.82908 20.2267 3.76753 19.6203 2.86595 18.8145C1.96437 18.0087 1.24305 17.0216 0.749182 15.9179C0.255314 14.8141 2.09949e-05 13.6185 0 12.4093ZM15.0856 12.4093H8.59091V5.91458C7.30637 5.91458 6.05068 6.29548 4.98263 7.00913C3.91458 7.72278 3.08213 8.73712 2.59056 9.92388C2.09899 11.1106 1.97038 12.4165 2.22098 13.6764C2.47158 14.9362 3.09014 16.0935 3.99844 17.0018C4.90675 17.9101 6.064 18.5286 7.32385 18.7792C8.5837 19.0298 9.88958 18.9012 11.0763 18.4096C12.2631 17.9181 13.2774 17.0856 13.9911 16.0176C14.7047 14.9495 15.0856 13.6938 15.0856 12.4093Z" fill="white"/>
</svg>
