<svg width="16" height="18" viewBox="0 0 16 18" fill="none" xmlns="http://www.w3.org/2000/svg">
<path d="M14.2222 16.2H1.77778V6.3H14.2222M11.5556 0V1.8H4.44444V0H2.66667V1.8H1.77778C0.791111 1.8 0 2.601 0 3.6V16.2C0 16.6774 0.187301 17.1352 0.520699 17.4728C0.854097 17.8104 1.30628 18 1.77778 18H14.2222C14.6937 18 15.1459 17.8104 15.4793 17.4728C15.8127 17.1352 16 16.6774 16 16.2V3.6C16 3.12261 15.8127 2.66477 15.4793 2.32721C15.1459 1.98964 14.6937 1.8 14.2222 1.8H13.3333V0M12.4444 9.9H8V14.4H12.4444V9.9Z" fill="white"/>
</svg>
