<svg width="19" height="21" viewBox="0 0 19 21" fill="none" xmlns="http://www.w3.org/2000/svg">
<path d="M3.16667 21C2.28704 21 1.53935 20.6937 0.923611 20.0812C0.30787 19.4688 0 18.725 0 17.85V14.7H3.16667V0H19V17.85C19 18.725 18.6921 19.4688 18.0764 20.0812C17.4606 20.6937 16.713 21 15.8333 21H3.16667ZM15.8333 18.9C16.1324 18.9 16.3833 18.7992 16.5859 18.5976C16.7886 18.396 16.8896 18.1468 16.8889 17.85V2.1H5.27778V14.7H14.7778V17.85C14.7778 18.1475 14.8791 18.397 15.0818 18.5986C15.2844 18.8002 15.535 18.9007 15.8333 18.9ZM6.33333 7.35V5.25H15.8333V7.35H6.33333ZM6.33333 10.5V8.4H15.8333V10.5H6.33333ZM3.16667 18.9H12.6667V16.8H2.11111V17.85C2.11111 18.1475 2.21244 18.397 2.41511 18.5986C2.61778 18.8002 2.8683 18.9007 3.16667 18.9ZM3.16667 18.9H2.11111H12.6667H3.16667Z" fill="white"/>
</svg>
