<svg width="26" height="30" viewBox="0 0 26 30" fill="none" xmlns="http://www.w3.org/2000/svg">
<path d="M26 24.2857V25.7143H0V24.2857L2.88889 21.4286V12.8571C2.88889 8.42857 5.82111 4.52857 10.1111 3.27143V2.85714C10.1111 2.09938 10.4155 1.37266 10.9572 0.836838C11.499 0.301019 12.2338 0 13 0C13.7662 0 14.501 0.301019 15.0428 0.836838C15.5845 1.37266 15.8889 2.09938 15.8889 2.85714V3.27143C20.1789 4.52857 23.1111 8.42857 23.1111 12.8571V21.4286L26 24.2857ZM15.8889 27.1429C15.8889 27.9006 15.5845 28.6273 15.0428 29.1632C14.501 29.699 13.7662 30 13 30C12.2338 30 11.499 29.699 10.9572 29.1632C10.4155 28.6273 10.1111 27.9006 10.1111 27.1429" fill="white"/>
</svg>
