<svg width="21" height="21" viewBox="0 0 21 21" fill="none" xmlns="http://www.w3.org/2000/svg">
<path d="M12.8786 20.3955C12.4756 20.7985 11.9762 21 11.3805 21C10.7847 21 10.2854 20.7985 9.88236 20.3955L0.630795 11.1439C0.438054 10.9512 0.284562 10.7234 0.170319 10.4606C0.0560764 10.1977 -0.000694466 9.9174 6.41046e-06 9.61952V2.10263C6.41046e-06 1.52441 0.206064 1.02959 0.618179 0.618173C1.03029 0.206758 1.52511 0.000700876 2.10263 0H9.61953C9.9174 0 10.1978 0.0571215 10.4606 0.171364C10.7234 0.285607 10.9512 0.438748 11.1439 0.630788L20.3955 9.90864C20.7985 10.3116 21 10.8068 21 11.3941C21 11.9815 20.7985 12.4763 20.3955 12.8786L12.8786 20.3955ZM11.3805 18.9237L18.8974 11.4068L9.61953 2.10263H2.10263V9.61952L11.3805 18.9237ZM4.73092 6.30788C5.16897 6.30788 5.54148 6.15474 5.84847 5.84846C6.15545 5.54218 6.30859 5.16966 6.30789 4.73091C6.30789 4.29287 6.15475 3.9207 5.84847 3.61442C5.54218 3.30814 5.16967 3.15464 4.73092 3.15394C4.29287 3.15394 3.92071 3.30743 3.61442 3.61442C3.30814 3.9214 3.15465 4.29357 3.15395 4.73091C3.15395 5.16896 3.30744 5.54148 3.61442 5.84846C3.92141 6.15544 4.29357 6.30859 4.73092 6.30788Z" fill="white"/>
</svg>
