<svg width="30" height="30" viewBox="0 0 30 30" fill="none" xmlns="http://www.w3.org/2000/svg">
<path d="M10.8955 30L10.2985 25.2C9.97513 25.075 9.67065 24.925 9.38508 24.75C9.0995 24.575 8.8194 24.3875 8.54478 24.1875L4.10448 26.0625L0 18.9375L3.84328 16.0125C3.81841 15.8375 3.80597 15.669 3.80597 15.507V14.4945C3.80597 14.3315 3.81841 14.1625 3.84328 13.9875L0 11.0625L4.10448 3.9375L8.54478 5.8125C8.81841 5.6125 9.10448 5.425 9.40299 5.25C9.70149 5.075 10 4.925 10.2985 4.8L10.8955 0H19.1045L19.7015 4.8C20.0249 4.925 20.3299 5.075 20.6164 5.25C20.903 5.425 21.1826 5.6125 21.4552 5.8125L25.8955 3.9375L30 11.0625L26.1567 13.9875C26.1816 14.1625 26.194 14.3315 26.194 14.4945V15.5055C26.194 15.6685 26.1692 15.8375 26.1194 16.0125L29.9627 18.9375L25.8582 26.0625L21.4552 24.1875C21.1816 24.3875 20.8955 24.575 20.597 24.75C20.2985 24.925 20 25.075 19.7015 25.2L19.1045 30H10.8955ZM15.0746 20.25C16.5174 20.25 17.7488 19.7375 18.7687 18.7125C19.7886 17.6875 20.2985 16.45 20.2985 15C20.2985 13.55 19.7886 12.3125 18.7687 11.2875C17.7488 10.2625 16.5174 9.75 15.0746 9.75C13.607 9.75 12.3692 10.2625 11.3612 11.2875C10.3532 12.3125 9.84975 13.55 9.85075 15C9.85075 16.45 10.3547 17.6875 11.3627 18.7125C12.3706 19.7375 13.608 20.25 15.0746 20.25Z" fill="white"/>
</svg>
