<svg width="17" height="21" viewBox="0 0 17 21" fill="none" xmlns="http://www.w3.org/2000/svg">
<path d="M7.38437 16.8L13.3875 10.8675L11.8469 9.345L7.35781 13.7812L5.12656 11.5762L3.6125 13.0725L7.38437 16.8ZM2.125 21C1.54062 21 1.04054 20.7945 0.62475 20.3836C0.208958 19.9727 0.000708333 19.4782 0 18.9V2.1C0 1.5225 0.20825 1.0283 0.62475 0.6174C1.04125 0.2065 1.54133 0.0007 2.125 0H10.625L17 6.3V18.9C17 19.4775 16.7921 19.972 16.3763 20.3836C15.9605 20.7952 15.4601 21.0007 14.875 21H2.125ZM9.5625 7.35V2.1H2.125V18.9H14.875V7.35H9.5625Z" fill="white"/>
</svg>
