<svg width="21" height="21" viewBox="0 0 21 21" fill="none" xmlns="http://www.w3.org/2000/svg">
<path d="M15.673 0C16.044 7.00369e-05 16.4096 0.0885875 16.7395 0.25821C17.0694 0.427832 17.3541 0.673671 17.57 0.975333L17.6738 1.13283L20.5018 5.84617C20.7805 6.31098 20.9475 6.83417 20.9895 7.3745L21 7.64633V18.6667C21.0002 19.2553 20.7779 19.8223 20.3776 20.254C19.9773 20.6856 19.4287 20.95 18.8417 20.9942L18.6667 21H2.33333C1.74466 21.0002 1.17767 20.7779 0.746027 20.3776C0.314382 19.9773 0.0499839 19.4287 0.00583347 18.8417L0 18.6667V7.64633C3.67159e-05 7.10369 0.126249 6.56849 0.368667 6.083L0.499333 5.845L3.325 1.13283C3.51587 0.814504 3.77993 0.546301 4.09524 0.350496C4.41056 0.154691 4.76804 0.0369327 5.138 0.00700005L5.327 0H15.673ZM18.6667 8.16667H2.33333V18.6667H18.6667V8.16667ZM9.33333 2.33333H5.327L3.227 5.83333H9.33333V2.33333ZM15.673 2.33333H11.6667V5.83333H17.773L15.673 2.33333Z" fill="white"/>
</svg>
